{
	"asset":{
		"generator":"Khronos glTF Blender I/O v3.6.27",
		"version":"2.0"
	},
	"scene":0,
	"scenes":[
		{
			"name":"Scene",
			"nodes":[
				0
			]
		}
	],
	"nodes":[
		{
			"mesh":0,
			"name":"Plane-col",
			"scale":[
				25,
				25,
				25
			],
			"translation":[
				0,
				50,
				0
			]
		}
	],
	"meshes":[
		{
			"name":"Plane",
			"primitives":[
				{
					"attributes":{
						"POSITION":0,
						"NORMAL":1,
						"TEXCOORD_0":2,
						"TANGENT":3
					},
					"indices":4
				}
			]
		}
	],
	"accessors":[
		{
			"bufferView":0,
			"componentType":5126,
			"count":36,
			"max":[
				1,
				0.03999999910593033,
				1
			],
			"min":[
				-1,
				-2,
				-32.80000305175781
			],
			"type":"VEC3"
		},
		{
			"bufferView":1,
			"componentType":5126,
			"count":36,
			"type":"VEC3"
		},
		{
			"bufferView":2,
			"componentType":5126,
			"count":36,
			"type":"VEC2"
		},
		{
			"bufferView":3,
			"componentType":5126,
			"count":36,
			"type":"VEC4"
		},
		{
			"bufferView":4,
			"componentType":5123,
			"count":54,
			"type":"SCALAR"
		}
	],
	"bufferViews":[
		{
			"buffer":0,
			"byteLength":432,
			"byteOffset":0,
			"target":34962
		},
		{
			"buffer":0,
			"byteLength":432,
			"byteOffset":432,
			"target":34962
		},
		{
			"buffer":0,
			"byteLength":288,
			"byteOffset":864,
			"target":34962
		},
		{
			"buffer":0,
			"byteLength":576,
			"byteOffset":1152,
			"target":34962
		},
		{
			"buffer":0,
			"byteLength":108,
			"byteOffset":1728,
			"target":34963
		}
	],
	"buffers":[
		{
			"byteLength":1836,
			"uri":"demo_level-973fb920544e075c8f8ac518c6f43a21.bin"
		}
	]
}
