{
	"asset":{
		"generator":"Khronos glTF Blender I/O v3.6.27",
		"version":"2.0"
	},
	"scene":0,
	"scenes":[
		{
			"name":"Scene",
			"nodes":[
				0
			]
		}
	],
	"nodes":[
		{
			"mesh":0,
			"name":"Cylinder-col"
		}
	],
	"meshes":[
		{
			"name":"Cylinder",
			"primitives":[
				{
					"attributes":{
						"POSITION":0,
						"NORMAL":1,
						"TEXCOORD_0":2,
						"TANGENT":3
					},
					"indices":4
				}
			]
		}
	],
	"accessors":[
		{
			"bufferView":0,
			"componentType":5126,
			"count":260,
			"max":[
				0.9333297610282898,
				0,
				0.9333297610282898
			],
			"min":[
				-0.9333297610282898,
				-0.20000000298023224,
				-0.8272901773452759
			],
			"type":"VEC3"
		},
		{
			"bufferView":1,
			"componentType":5126,
			"count":260,
			"type":"VEC3"
		},
		{
			"bufferView":2,
			"componentType":5126,
			"count":260,
			"type":"VEC2"
		},
		{
			"bufferView":3,
			"componentType":5126,
			"count":260,
			"type":"VEC4"
		},
		{
			"bufferView":4,
			"componentType":5123,
			"count":498,
			"type":"SCALAR"
		}
	],
	"bufferViews":[
		{
			"buffer":0,
			"byteLength":3120,
			"byteOffset":0,
			"target":34962
		},
		{
			"buffer":0,
			"byteLength":3120,
			"byteOffset":3120,
			"target":34962
		},
		{
			"buffer":0,
			"byteLength":2080,
			"byteOffset":6240,
			"target":34962
		},
		{
			"buffer":0,
			"byteLength":4160,
			"byteOffset":8320,
			"target":34962
		},
		{
			"buffer":0,
			"byteLength":996,
			"byteOffset":12480,
			"target":34963
		}
	],
	"buffers":[
		{
			"byteLength":13476,
			"uri":"horseshoe-ad130eac78daf81839fc8c7376aa324d.bin"
		}
	]
}
